<svg width="44" height="46" viewBox="0 0 44 46" fill="none" xmlns="http://www.w3.org/2000/svg">
<circle cx="22" cy="22" r="22" fill="#92A234"/>
<g clip-path="url(#clip0_290_3476)">
<mask id="mask0_290_3476" style="mask-type:alpha" maskUnits="userSpaceOnUse" x="12" y="35" width="21" height="16">
<path fill-rule="evenodd" clip-rule="evenodd" d="M29.4999 37.863C28.7384 36.2479 27.0955 35.1302 25.1916 35.1302C24.4435 35.1302 23.7357 35.3027 23.1059 35.6102C22.7508 35.3107 22.2921 35.1302 21.7912 35.1302C20.8998 35.1302 20.1419 35.7018 19.8642 36.4986C19.1699 36.5494 18.54 36.8319 18.0514 37.269C17.8358 37.2048 17.6074 37.1703 17.3709 37.1703C16.409 37.1703 15.5804 37.7409 15.205 38.5621C13.5473 38.7891 12.2703 40.2108 12.2703 41.9308C12.2703 43.8088 13.7926 45.3311 15.6706 45.3311C15.914 45.3311 16.1513 45.3056 16.3802 45.257C16.6845 48.3529 19.2954 50.7717 22.4712 50.7717C25.3952 50.7717 27.8402 48.7214 28.4471 45.9801C28.6058 46.0006 28.7677 46.0112 28.932 46.0112C30.9977 46.0112 32.6723 44.3366 32.6723 42.2708C32.6723 41.0722 32.1085 40.0052 31.2316 39.3207C31.0054 38.5417 30.3273 37.955 29.4999 37.863Z" fill="white"/>
</mask>
<g mask="url(#mask0_290_3476)">
<circle cx="22" cy="22" r="22" fill="#FFFFF1"/>
</g>
</g>
<path d="M24.8218 22.7852C24.3247 23.2596 23.8005 23.9017 23.3241 24.7629C22.8534 23.0683 22.2601 21.8259 21.6603 20.9164C24.4124 11.7476 11 11.419 11 11.419C11 11.419 11.3915 22.8784 18.3962 22.6153C18.3819 21.848 18.2628 21.0721 18.0959 20.3446C17.9868 19.8703 17.857 19.418 17.723 19.0005C17.2751 17.6159 16.7695 16.6331 16.7695 16.6331C17.2801 17.3173 17.7322 17.9701 18.1316 18.5838C19.5059 20.6923 20.2561 22.3322 20.6048 23.1984C21.4656 25.0424 22.2387 28.0754 22.2387 33.0321C22.2387 33.5932 22.6958 34.0476 23.2564 34.0476C23.8183 34.0476 24.2748 33.5932 24.2748 33.0321C24.2748 31.4256 24.197 29.9962 24.0565 28.7211C24.381 27.1652 24.871 26.0608 25.378 25.2785C25.7111 24.6449 26.3251 23.5597 27.1524 22.4517C27.8891 21.4661 28.7976 20.4619 29.8253 19.7451C29.8253 19.7451 27.7179 22.0712 27.5817 24.3483C33.4025 24.6513 33.6286 15.5195 33.6286 15.5195C33.6286 15.5195 22.9761 15.8822 24.8218 22.7852Z" fill="#FFFFF1"/>
<defs>
<clipPath id="clip0_290_3476">
<rect width="22.5238" height="10.4762" fill="white" transform="translate(11 35.0952)"/>
</clipPath>
</defs>
</svg>
