<svg xmlns="http://www.w3.org/2000/svg">

  <symbol id="cart" viewBox="0 0 30 32">
    <path d="M15.3334 0C11.6642 0 8.70441 2.91582 8.70441 6.53061V7.83673H3.46336L3.40121 8.40816L0.749611 31.2653L0.666748 32H30.0001L29.9172 31.2653L27.2656 8.40816L27.2035 7.83673H21.9624V6.53061C21.9624 2.91582 19.0027 0 15.3334 0ZM15.3334 1.30612C18.2932 1.30612 20.6366 3.6148 20.6366 6.53061V7.83673H10.0302V6.53061C10.0302 3.6148 12.3737 1.30612 15.3334 1.30612ZM4.66486 9.14286H8.70441V10.6327C8.30823 10.8597 8.04151 11.273 8.04151 11.7551C8.04151 12.477 8.6345 13.0612 9.36731 13.0612C10.1001 13.0612 10.6931 12.477 10.6931 11.7551C10.6931 11.273 10.4264 10.8597 10.0302 10.6327V9.14286H20.6366V10.6327C20.2404 10.8597 19.9737 11.273 19.9737 11.7551C19.9737 12.477 20.5667 13.0612 21.2995 13.0612C22.0323 13.0612 22.6253 12.477 22.6253 11.7551C22.6253 11.273 22.3586 10.8597 21.9624 10.6327V9.14286H26.002L28.5086 30.6939H2.15827L4.66486 9.14286Z"/>
  </symbol>


  <symbol id="instagram" viewBox="0 0 38 38">
    <path d="M28.5 0H9.5C4.27546 0 0 4.27361 0 9.5V28.5C0 33.7245 4.27546 38 9.5 38H28.5C33.7245 38 38 33.7245 38 28.5V9.5C38 4.27361 33.7245 0 28.5 0ZM19 26.9164C14.6271 26.9164 11.0832 23.3709 11.0832 19C11.0832 14.6271 14.6271 11.0832 19 11.0832C23.3709 11.0832 26.9168 14.6271 26.9168 19C26.9168 23.3709 23.3709 26.9164 19 26.9164ZM29.2918 11.0832C27.9789 11.0832 26.9168 10.0196 26.9168 8.70818C26.9168 7.39673 27.9789 6.33318 29.2918 6.33318C30.6047 6.33318 31.6668 7.39673 31.6668 8.70818C31.6668 10.0196 30.6047 11.0832 29.2918 11.0832Z" />
  </symbol>




  <symbol id="whatsapp" viewBox="0 0 39 38">
    <path d="M19.959 0C9.48239 0 0.958984 8.52279 0.958984 19C0.958984 22.6862 2.01598 26.24 4.02236 29.3263L1.06165 36.2348C0.857552 36.7098 0.963932 37.2628 1.33008 37.6289C1.57253 37.8714 1.89661 38 2.22565 38C2.39388 38 2.56396 37.9666 2.72477 37.8973L9.6333 34.936C12.7189 36.9436 16.2728 38 19.959 38C30.4362 38 38.959 29.4772 38.959 19C38.959 8.52279 30.4362 0 19.959 0ZM29.7113 25.8009C29.7113 25.8009 28.1317 27.8271 26.99 28.3008C24.088 29.502 19.9911 28.3008 15.324 23.635C10.6581 18.9678 9.45641 14.871 10.6581 11.969C11.1319 10.826 13.1581 9.24766 13.1581 9.24766C13.7073 8.81966 14.5608 8.87285 15.0531 9.36517L17.3452 11.6573C17.8376 12.1496 17.8376 12.9561 17.3452 13.4484L15.9066 14.8858C15.9066 14.8858 15.324 16.6349 18.8234 20.1355C22.3229 23.635 24.0732 23.0523 24.0732 23.0523L25.5105 21.6137C26.0029 21.1214 26.8094 21.1214 27.3017 21.6137L29.5938 23.9059C30.0861 24.3982 30.1393 25.2505 29.7113 25.8009Z"/>
  </symbol>


</svg>
